<svg width="24" height="24" viewBox="0 0 24 24" fill="none" xmlns="http://www.w3.org/2000/svg">
<path d="M16.905 11.25C14.1926 11.25 12 13.5238 12 16.3366C12 19.1496 14.1926 21.4233 16.905 21.4233C19.6175 21.4233 21.81 19.1496 21.81 16.3366C21.81 13.5238 19.6175 11.25 16.905 11.25ZM19.2137 18.0117C19.4056 18.2106 19.4056 18.5321 19.2137 18.7309C19.1181 18.8302 18.9925 18.88 18.867 18.88C18.7414 18.88 18.6159 18.8302 18.5203 18.7309L16.905 17.0559L15.2897 18.7309C15.1941 18.8302 15.0685 18.88 14.943 18.88C14.8174 18.88 14.6919 18.8302 14.5963 18.7309C14.4044 18.5321 14.4044 18.2106 14.5963 18.0117L16.2114 16.3366L14.5963 14.6616C14.4044 14.4627 14.4044 14.1413 14.5963 13.9424C14.7881 13.7435 15.0979 13.7435 15.2897 13.9424L16.905 15.6174L18.5203 13.9424C18.7121 13.7435 19.022 13.7435 19.2137 13.9424C19.4056 14.1413 19.4056 14.4627 19.2137 14.6616L17.5986 16.3366L19.2137 18.0117Z" fill="white"/>
<path fill-rule="evenodd" clip-rule="evenodd" d="M20.4871 3.26149C19.1383 1.91278 16.9516 1.91285 15.6031 3.26164L3.51877 15.3474C3.13792 15.7283 2.86651 16.2046 2.733 16.7264L1.51952 21.4689C1.4648 21.6828 1.52695 21.9096 1.68301 22.0658C1.83908 22.2218 2.06591 22.284 2.27978 22.2294L7.0229 21.0171C7.54522 20.8836 8.02192 20.612 8.40307 20.2308L11.1644 17.4692C11.0506 16.8781 11.0474 16.4963 11.092 15.7737L7.51912 19.347C7.29665 19.5695 7.0183 19.7281 6.7134 19.806L2.9919 20.7572L3.94398 17.0363C4.02193 16.7316 4.18038 16.4535 4.40271 16.2312L14.5 6.13268L17.6161 9.24878L16.5424 10.3226C17.2642 10.3081 17.6204 10.3349 18.1835 10.4492L20.4872 8.14523C21.8357 6.79652 21.8356 4.61008 20.4871 3.26149ZM19.6032 4.14537C18.7426 3.28484 17.3474 3.28489 16.4869 4.14547L15.3838 5.24875L18.4999 8.3649L19.6033 7.26137C20.4637 6.40088 20.4637 5.00582 19.6032 4.14537Z" fill="white"/>
</svg>
