<svg width="16" height="9" viewBox="0 0 16 9" fill="none" xmlns="http://www.w3.org/2000/svg">
<path d="M14.4955 0.992831C14.3634 0.995949 14.238 1.05118 14.1465 1.14648L8.00001 7.29296L1.85353 1.14648C1.80692 1.09848 1.75116 1.06033 1.68954 1.03427C1.62792 1.00821 1.5617 0.994786 1.4948 0.994784C1.39529 0.994808 1.29806 1.02452 1.21553 1.08012C1.133 1.13571 1.06894 1.21467 1.03154 1.30688C0.994139 1.39909 0.985099 1.50036 1.00558 1.59774C1.02605 1.69512 1.07512 1.78417 1.14649 1.85351L7.64649 8.35351C7.74027 8.44724 7.86742 8.49989 8.00001 8.49989C8.1326 8.49989 8.25975 8.44724 8.35353 8.35351L14.8535 1.85351C14.9262 1.78372 14.9762 1.69359 14.9968 1.59494C15.0174 1.49629 15.0077 1.39371 14.969 1.30066C14.9302 1.20761 14.8643 1.12843 14.7798 1.0735C14.6953 1.01857 14.5962 0.99045 14.4955 0.992831Z" fill="white"/>
</svg>
