<svg version="1.1" xmlns="http://www.w3.org/2000/svg" xmlns:xlink="http://www.w3.org/1999/xlink" viewBox="0 0 172 172"><g fill="none" fill-rule="nonzero" stroke="none" stroke-width="1" stroke-linecap="butt" stroke-linejoin="miter" stroke-miterlimit="10" stroke-dasharray="" stroke-dashoffset="0" font-family="none" font-weight="none" font-size="none" text-anchor="none" style="mix-blend-mode: normal"><path d="M0,172v-172h172v172z" fill="none"></path><g fill="#ffffff"><path d="M152.18669,14.28434c-1.39592,0.04068 -2.72121,0.62301 -3.69531,1.6237l-48.06706,48.06706c-0.01724,-0.00762 -0.03174,-0.02041 -0.04899,-0.028l-8.45443,8.45443c0.01956,0.00476 0.03645,0.01619 0.05599,0.021l-30.30436,30.30436c-0.00534,-0.02172 -0.01571,-0.04125 -0.021,-0.06299l-8.45443,8.45443c0.00842,0.01914 0.01954,0.03687 0.028,0.05599l-37.31706,37.31706c-1.40412,1.34815 -1.96972,3.35005 -1.47867,5.23364c0.49105,1.8836 1.96202,3.35457 3.84561,3.84562c1.8836,0.49105 3.88549,-0.07455 5.23364,-1.47867l35.66536,-35.66536c6.56488,7.44041 16.14413,12.15674 26.82601,12.15674c19.7585,0 35.83333,-16.07483 35.83333,-35.83333c0,-10.67989 -4.71697,-20.26026 -12.15674,-26.82601l15.92903,-15.92904c17.38539,10.17939 30.87428,26.61874 35.82634,45.86947c0.60917,2.43667 2.7922,4.05224 5.19303,4.05224c0.43,0 0.89276,-0.03863 1.32276,-0.18197c2.9025,-0.71667 4.62278,-3.64912 3.87028,-6.51579c-5.51776,-21.50935 -19.6653,-39.62368 -38.24089,-51.19547l22.51481,-22.51481c1.58706,-1.54566 2.06336,-3.90666 1.19966,-5.94672c-0.8637,-2.04007 -2.89048,-3.34134 -5.10493,-3.27756zM85.96501,32.25c-40.02583,0 -76.10804,27.30808 -85.78304,64.96891c-0.7525,2.86667 0.96778,5.79912 3.87028,6.51579c2.86667,0.7525 5.79912,-0.96778 6.51579,-3.87028c8.34917,-32.42917 40.78197,-56.86442 75.39697,-56.86442c6.1275,0 12.18081,0.74942 18.02165,2.21859l8.81836,-8.81136c-8.56417,-2.72333 -17.59501,-4.15723 -26.84001,-4.15723zM86,60.91667c-19.7585,0 -35.83333,16.07483 -35.83333,35.83333c0,0.70592 0.06198,1.40086 0.10498,2.09961l13.33952,-13.33952c2.42592,-4.80883 6.34009,-8.72301 11.14893,-11.14893l13.33252,-13.33952c-0.69517,-0.043 -1.38669,-0.10498 -2.09261,-0.10498zM102.02702,77.57357c5.50527,4.597 9.05632,11.45687 9.05632,19.17643c0,13.82808 -11.25167,25.08333 -25.08333,25.08333c-7.71956,0 -14.57943,-3.55004 -19.17643,-9.05632l10.1761,-10.17611c1.9787,3.04987 5.36482,4.89302 9.00033,4.89909c4.75081,-0.01216 8.93027,-3.14137 10.2797,-7.69651c1.34943,-4.55515 -0.4512,-9.45591 -4.42879,-12.05381z"></path></g></g></svg>