<svg width="24" height="24" viewBox="0 0 24 24" fill="none" xmlns="http://www.w3.org/2000/svg">
<path fill-rule="evenodd" clip-rule="evenodd" d="M16.8261 7.95652H3.91304C3.84101 7.95652 3.78261 8.01492 3.78261 8.08696V18C3.78261 18.072 3.84101 18.1304 3.91304 18.1304H16.8261C16.8981 18.1304 16.9565 18.072 16.9565 18V8.08696C16.9565 8.01492 16.8981 7.95652 16.8261 7.95652ZM3.91304 6C2.76044 6 1.82609 6.93436 1.82609 8.08696V18C1.82609 19.1527 2.76044 20.087 3.91304 20.087H16.8261C17.9787 20.087 18.913 19.1527 18.913 18V8.08696C18.913 6.93436 17.9787 6 16.8261 6H3.91304Z" fill="black"/>
<path fill-rule="evenodd" clip-rule="evenodd" d="M5.67391 4.04348C5.67391 3.5032 6.1119 3.06522 6.65217 3.06522H19.0435C20.7364 3.06522 22.1087 4.43756 22.1087 6.13043V15.3261C22.1087 15.8663 21.6707 16.3043 21.1304 16.3043C20.5902 16.3043 20.1522 15.8663 20.1522 15.3261V6.13043C20.1522 5.51812 19.6557 5.02174 19.0435 5.02174H6.65217C6.1119 5.02174 5.67391 4.58375 5.67391 4.04348Z" fill="black"/>
</svg>
