<svg version="1.1" xmlns="http://www.w3.org/2000/svg" xmlns:xlink="http://www.w3.org/1999/xlink" fill="#ffffff" viewBox="0 0 172 172"><g style="mix-blend-mode: normal"><path d="M0,172v-172h172v172z" fill="none"></path><g><path d="M86,14.33333c-12.57146,0 -23.03941,9.39347 -24.79639,21.5h-24.51644c-0.30515,-0.05222 -0.61424,-0.07797 -0.92383,-0.07699c-0.2675,0.00577 -0.53419,0.0315 -0.79785,0.07699h-11.67383c-1.93842,-0.02741 -3.74144,0.99102 -4.71865,2.66532c-0.97721,1.6743 -0.97721,3.74507 0,5.41937c0.97721,1.6743 2.78023,2.69273 4.71865,2.66532h7.66357l9.02132,93.27165c0.97137,10.05709 9.51566,17.81169 19.61735,17.81169h52.80518c10.10222,0 18.64637,-7.75373 19.61735,-17.81169l9.02832,-93.27165h7.66357c1.93842,0.02741 3.74144,-0.99102 4.71865,-2.66532c0.97721,-1.6743 0.97721,-3.74507 0,-5.41937c-0.97721,-1.6743 -2.78023,-2.69273 -4.71865,-2.66532h-11.66683c-0.57017,-0.0925 -1.15151,-0.0925 -1.72168,0h-24.52344c-1.75697,-12.10653 -12.22493,-21.5 -24.79639,-21.5zM86,25.08333c6.73364,0 12.25775,4.54424 13.83643,10.75h-27.67285c1.57868,-6.20576 7.10278,-10.75 13.83643,-10.75zM41.74723,46.58333h88.49853l-8.93034,92.23584c-0.44802,4.64088 -4.25523,8.09749 -8.91634,8.09749h-52.80518c-4.65447,0 -8.46871,-3.46291 -8.91634,-8.09749zM73.37435,64.42302c-2.96578,0.04633 -5.33356,2.48614 -5.29101,5.45198v53.75c-0.02741,1.93842 0.99102,3.74144 2.66532,4.71865c1.6743,0.97721 3.74507,0.97721 5.41937,0c1.6743,-0.97721 2.69273,-2.78023 2.66532,-4.71865v-53.75c0.02085,-1.45347 -0.54782,-2.85342 -1.57635,-3.88062c-1.02852,-1.0272 -2.4292,-1.59408 -3.88264,-1.57136zM98.45768,64.42302c-2.96578,0.04633 -5.33356,2.48614 -5.29101,5.45198v53.75c-0.02741,1.93842 0.99102,3.74144 2.66532,4.71865c1.6743,0.97721 3.74507,0.97721 5.41937,0c1.6743,-0.97721 2.69273,-2.78023 2.66532,-4.71865v-53.75c0.02085,-1.45347 -0.54782,-2.85342 -1.57635,-3.88062c-1.02852,-1.0272 -2.4292,-1.59408 -3.88264,-1.57136z"></path></g></g></svg>