<svg version="1.1" xmlns="http://www.w3.org/2000/svg" xmlns:xlink="http://www.w3.org/1999/xlink" viewBox="0 0 172 172"><g fill="#ffffff" fill-rule="nonzero" stroke="none" stroke-width="1" stroke-linecap="butt" stroke-linejoin="miter" stroke-miterlimit="10" stroke-dasharray="" stroke-dashoffset="0" font-family="none" font-weight="none" font-size="none" text-anchor="none" style="mix-blend-mode: normal"><path d="M0,172v-172h172v172z" fill="none"></path><g fill="#ffffff"><path d="M85.95101,32.25c-40.56198,0 -76.30155,28.11454 -85.78304,64.95491c-0.73827,2.87576 0.99452,5.80552 3.87028,6.54378c2.87576,0.73827 5.80552,-0.99452 6.54378,-3.87028c8.17001,-31.74462 39.82096,-56.87842 75.36898,-56.87842c35.54802,0 67.29922,25.14264 75.46696,56.87842c0.73827,2.87576 3.66802,4.60855 6.54378,3.87028c2.87576,-0.73827 4.60855,-3.66802 3.87028,-6.54378c-9.48376,-36.84922 -45.31904,-64.95491 -85.88102,-64.95491zM86.007,60.91667c-19.06358,0 -34.62956,15.566 -34.62956,34.62956c0,19.06357 15.56598,34.63656 34.62956,34.63656c19.06358,0 34.63656,-15.57299 34.63656,-34.63656c0,-19.06356 -15.57298,-34.62956 -34.63656,-34.62956zM86.007,71.66667c13.25385,0 23.88656,10.62572 23.88656,23.87956c0,13.25385 -10.63271,23.88656 -23.88656,23.88656c-13.25385,0 -23.87956,-10.63271 -23.87956,-23.88656c0,-13.25384 10.62571,-23.87956 23.87956,-23.87956z"></path></g></g></svg>